<svg xmlns="http://www.w3.org/2000/svg" viewBox="0 0 400 600">
  <path d="M191.797 163.122 C 169.944 165.017,154.210 169.281,137.122 177.936 C 53.857 220.112,37.346 331.961,104.770 397.098 C 171.492 461.557,281.651 442.430,323.155 359.180 C 356.121 293.054,328.777 210.764,262.927 177.928 C 241.330 167.159,213.071 161.276,191.797 163.122 M210.156 168.369 C 283.699 173.918,337.597 236.875,331.671 310.308 C 325.368 388.401,250.552 443.919,173.242 427.869 C 100.701 412.810,54.776 341.581,71.157 269.539 C 85.487 206.522,144.693 163.429,210.156 168.369 M213.689 237.891 C 213.527 238.213,211.245 245.068,208.618 253.125 C 205.991 261.182,197.792 286.035,190.398 308.355 C 183.003 330.675,176.953 349.088,176.953 349.273 C 176.953 349.458,177.884 349.609,179.021 349.609 L 181.089 349.609 182.977 343.848 C 184.015 340.679,188.635 326.660,193.243 312.695 C 205.145 276.624,212.171 255.308,215.130 246.289 C 216.540 241.992,217.767 238.275,217.858 238.028 C 218.126 237.296,214.057 237.162,213.689 237.891 M249.743 243.937 C 230.799 247.375,221.252 264.502,229.270 280.664 C 232.809 287.798,236.690 290.745,252.323 298.171 C 268.457 305.835,272.070 309.189,272.569 316.963 C 273.257 327.675,265.722 334.781,253.586 334.866 C 240.923 334.954,230.937 326.889,227.711 313.965 L 226.857 310.547 225.343 310.547 L 223.828 310.547 223.828 321.225 L 223.828 331.903 228.384 334.169 C 254.246 347.036,279.688 339.631,283.826 318.032 C 286.589 303.608,280.343 294.984,259.493 284.435 C 243.374 276.279,238.567 271.866,237.991 264.696 C 237.222 255.115,244.245 248.307,254.883 248.321 C 265.407 248.336,272.344 253.940,275.118 264.671 L 275.970 267.969 277.641 267.969 L 279.312 267.969 279.207 259.082 L 279.102 250.195 275.441 248.356 C 266.734 243.982,257.883 242.460,249.743 243.937 M113.935 245.180 C 113.790 245.324,113.672 246.190,113.672 247.104 C 113.672 248.920,113.439 248.774,117.365 249.420 C 121.709 250.136,123.620 252.409,124.277 257.645 C 124.986 263.298,124.398 325.321,123.606 328.360 C 122.646 332.045,119.923 334.230,115.751 334.660 L 113.634 334.879 113.750 336.678 L 113.867 338.477 133.301 338.578 L 152.734 338.679 152.734 336.942 L 152.734 335.204 151.074 334.999 C 150.161 334.886,148.437 334.691,147.244 334.566 C 138.655 333.664,137.786 331.437,137.591 309.822 L 137.446 293.667 147.531 293.829 C 161.580 294.054,163.845 295.391,165.663 304.535 L 166.159 307.031 167.650 307.031 L 169.141 307.031 169.141 292.578 L 169.141 278.125 167.628 278.125 C 166.171 278.125,166.106 278.181,165.871 279.653 C 164.556 287.874,162.103 289.220,148.145 289.378 L 137.500 289.499 137.504 271.214 C 137.507 261.158,137.620 252.256,137.756 251.433 L 138.003 249.936 150.740 250.089 C 164.558 250.255,165.354 250.369,168.269 252.593 C 170.797 254.521,173.162 259.152,173.709 263.243 C 173.976 265.244,174.311 265.610,175.885 265.619 L 176.966 265.625 176.862 255.371 L 176.758 245.117 145.478 245.017 C 128.273 244.962,114.079 245.035,113.935 245.180" fill="#000000" fill-rule="evenodd"/>
</svg>
